<svg xmlns="http://www.w3.org/2000/svg" id="prefigure-ic4-sample-figure" viewBox="0 0 310 310">
  <defs>
    <clipPath id="prefigure-ic4-sample-clipPath-0">
      <rect x="5.0" y="5.0" width="300.0" height="300.0"/>
    </clipPath>
    <clipPath id="prefigure-ic4-sample-clipPath-1">
      <rect x="5.0" y="5.0" width="300.0" height="300.0"/>
    </clipPath>
  </defs>
  <g id="prefigure-ic4-sample-grid-axes">
    <g id="prefigure-ic4-sample-grid" stroke="#ccc" stroke-width="1">
      <line x1="5.0" y1="305.0" x2="5.0" y2="5.0"/>
      <line x1="42.5" y1="305.0" x2="42.5" y2="5.0"/>
      <line x1="80.0" y1="305.0" x2="80.0" y2="5.0"/>
      <line x1="117.5" y1="305.0" x2="117.5" y2="5.0"/>
      <line x1="155.0" y1="305.0" x2="155.0" y2="5.0"/>
      <line x1="192.5" y1="305.0" x2="192.5" y2="5.0"/>
      <line x1="230.0" y1="305.0" x2="230.0" y2="5.0"/>
      <line x1="267.5" y1="305.0" x2="267.5" y2="5.0"/>
      <line x1="305.0" y1="305.0" x2="305.0" y2="5.0"/>
      <line x1="5.0" y1="305.0" x2="305.0" y2="305.0"/>
      <line x1="5.0" y1="267.5" x2="305.0" y2="267.5"/>
      <line x1="5.0" y1="230.0" x2="305.0" y2="230.0"/>
      <line x1="5.0" y1="192.5" x2="305.0" y2="192.5"/>
      <line x1="5.0" y1="155.0" x2="305.0" y2="155.0"/>
      <line x1="5.0" y1="117.5" x2="305.0" y2="117.5"/>
      <line x1="5.0" y1="80.0" x2="305.0" y2="80.0"/>
      <line x1="5.0" y1="42.5" x2="305.0" y2="42.5"/>
      <line x1="5.0" y1="5.0" x2="305.0" y2="5.0"/>
    </g>
    <g id="prefigure-ic4-sample-axes" stroke="black" stroke-width="2">
      <line id="prefigure-ic4-sample-line-18" x1="5.0" y1="155.0" x2="305.0" y2="155.0" stroke="black" stroke-width="2"/>
      <g>
        <line id="prefigure-ic4-sample-line-19" x1="80.0" y1="158.0" x2="80.0" y2="152.0"/>
        <line id="prefigure-ic4-sample-line-20" x1="230.0" y1="158.0" x2="230.0" y2="152.0"/>
      </g>
      <line id="prefigure-ic4-sample-line-21" x1="155.0" y1="305.0" x2="155.0" y2="5.0" stroke="black" stroke-width="2"/>
      <g>
        <line id="prefigure-ic4-sample-line-22" x1="152.0" y1="230.0" x2="158.0" y2="230.0"/>
        <line id="prefigure-ic4-sample-line-23" x1="152.0" y1="80.0" x2="158.0" y2="80.0"/>
      </g>
    </g>
    <g id="prefigure-ic4-sample-label-0" transform="translate(301.0,151.0) translate(-10.4,-8.2)">
      <g id="prefigure-ic4-sample-g-0">
        <svg xmlns:xlink="http://www.w3.org/1999/xlink" style="vertical-align: -0.200px" width="10.352px" height="8.200px" role="img" focusable="false" viewBox="0 -442 572 453" x="0.0" y="0.0">
          <defs>
            <path id="prefigure-ic4-sample-MJX-2-TEX-I-1D465" d="M52 289Q59 331 106 386T222 442Q257 442 286 424T329 379Q371 442 430 442Q467 442 494 420T522 361Q522 332 508 314T481 292T458 288Q439 288 427 299T415 328Q415 374 465 391Q454 404 425 404Q412 404 406 402Q368 386 350 336Q290 115 290 78Q290 50 306 38T341 26Q378 26 414 59T463 140Q466 150 469 151T485 153H489Q504 153 504 145Q504 144 502 134Q486 77 440 33T333 -11Q263 -11 227 52Q186 -10 133 -10H127Q78 -10 57 16T35 71Q35 103 54 123T99 143Q142 143 142 101Q142 81 130 66T107 46T94 41L91 40Q91 39 97 36T113 29T132 26Q168 26 194 71Q203 87 217 139T245 247T261 313Q266 340 266 352Q266 380 251 392T217 404Q177 404 142 372T93 290Q91 281 88 280T72 278H58Q52 284 52 289Z"/>
          </defs>
          <g stroke="currentColor" fill="currentColor" stroke-width="0" transform="scale(1,-1)">
            <g data-mml-node="math">
              <g data-mml-node="mi" data-semantic-type="identifier" data-semantic-role="latinletter" data-semantic-font="italic" data-semantic-annotation="clearspeak:simple" data-semantic-id="0" data-semantic-speech="x">
                <use data-c="1D465" xlink:href="#prefigure-ic4-sample-MJX-2-TEX-I-1D465"/>
              </g>
            </g>
          </g>
        </svg>
      </g>
    </g>
    <g id="prefigure-ic4-sample-label-1" transform="translate(159.0,9.0) translate(0.0,-0.0)">
      <g id="prefigure-ic4-sample-g-1">
        <svg xmlns:xlink="http://www.w3.org/1999/xlink" style="vertical-align: -3.712px" width="8.872px" height="11.712px" role="img" focusable="false" viewBox="0 -442 490 647" x="0.0" y="0.0">
          <defs>
            <path id="prefigure-ic4-sample-MJX-3-TEX-I-1D466" d="M21 287Q21 301 36 335T84 406T158 442Q199 442 224 419T250 355Q248 336 247 334Q247 331 231 288T198 191T182 105Q182 62 196 45T238 27Q261 27 281 38T312 61T339 94Q339 95 344 114T358 173T377 247Q415 397 419 404Q432 431 462 431Q475 431 483 424T494 412T496 403Q496 390 447 193T391 -23Q363 -106 294 -155T156 -205Q111 -205 77 -183T43 -117Q43 -95 50 -80T69 -58T89 -48T106 -45Q150 -45 150 -87Q150 -107 138 -122T115 -142T102 -147L99 -148Q101 -153 118 -160T152 -167H160Q177 -167 186 -165Q219 -156 247 -127T290 -65T313 -9T321 21L315 17Q309 13 296 6T270 -6Q250 -11 231 -11Q185 -11 150 11T104 82Q103 89 103 113Q103 170 138 262T173 379Q173 380 173 381Q173 390 173 393T169 400T158 404H154Q131 404 112 385T82 344T65 302T57 280Q55 278 41 278H27Q21 284 21 287Z"/>
          </defs>
          <g stroke="currentColor" fill="currentColor" stroke-width="0" transform="scale(1,-1)">
            <g data-mml-node="math">
              <g data-mml-node="mi" data-semantic-type="identifier" data-semantic-role="latinletter" data-semantic-font="italic" data-semantic-annotation="clearspeak:simple" data-semantic-id="0" data-semantic-speech="y">
                <use data-c="1D466" xlink:href="#prefigure-ic4-sample-MJX-3-TEX-I-1D466"/>
              </g>
            </g>
          </g>
        </svg>
      </g>
    </g>
    <g id="prefigure-ic4-sample-label-2" transform="translate(80.0,166.0) translate(-7.5,-0.0)">
      <g id="prefigure-ic4-sample-g-2">
        <svg xmlns:xlink="http://www.w3.org/1999/xlink" style="vertical-align: 0.000px" width="15.080px" height="12.056px" role="img" focusable="false" viewBox="0 -666 833 666" x="0.0" y="0.0">
          <defs>
            <path id="prefigure-ic4-sample-MJX-4-TEX-N-2D" d="M11 179V252H277V179H11Z"/>
            <path id="prefigure-ic4-sample-MJX-4-TEX-N-31" d="M213 578L200 573Q186 568 160 563T102 556H83V602H102Q149 604 189 617T245 641T273 663Q275 666 285 666Q294 666 302 660V361L303 61Q310 54 315 52T339 48T401 46H427V0H416Q395 3 257 3Q121 3 100 0H88V46H114Q136 46 152 46T177 47T193 50T201 52T207 57T213 61V578Z"/>
          </defs>
          <g stroke="currentColor" fill="currentColor" stroke-width="0" transform="scale(1,-1)">
            <g data-mml-node="math">
              <g data-mml-node="mtext" data-semantic-type="text" data-semantic-role="unknown" data-semantic-font="normal" data-semantic-annotation="clearspeak:unit" data-semantic-id="0" data-semantic-speech="hyphen 1">
                <use data-c="2D" xlink:href="#prefigure-ic4-sample-MJX-4-TEX-N-2D"/>
                <use data-c="31" xlink:href="#prefigure-ic4-sample-MJX-4-TEX-N-31" transform="translate(333,0)"/>
              </g>
            </g>
          </g>
        </svg>
      </g>
    </g>
    <g id="prefigure-ic4-sample-label-3" transform="translate(230.0,166.0) translate(-4.5,-0.0)">
      <g id="prefigure-ic4-sample-g-3">
        <svg xmlns:xlink="http://www.w3.org/1999/xlink" style="vertical-align: 0.000px" width="9.048px" height="12.056px" role="img" focusable="false" viewBox="0 -666 500 666" x="0.0" y="0.0">
          <defs>
            <path id="prefigure-ic4-sample-MJX-5-TEX-N-31" d="M213 578L200 573Q186 568 160 563T102 556H83V602H102Q149 604 189 617T245 641T273 663Q275 666 285 666Q294 666 302 660V361L303 61Q310 54 315 52T339 48T401 46H427V0H416Q395 3 257 3Q121 3 100 0H88V46H114Q136 46 152 46T177 47T193 50T201 52T207 57T213 61V578Z"/>
          </defs>
          <g stroke="currentColor" fill="currentColor" stroke-width="0" transform="scale(1,-1)">
            <g data-mml-node="math">
              <g data-mml-node="mtext" data-semantic-type="text" data-semantic-role="integer" data-semantic-font="normal" data-semantic-annotation="clearspeak:unit" data-semantic-id="0" data-semantic-speech="1">
                <use data-c="31" xlink:href="#prefigure-ic4-sample-MJX-5-TEX-N-31"/>
              </g>
            </g>
          </g>
        </svg>
      </g>
    </g>
    <g id="prefigure-ic4-sample-label-4" transform="translate(144.0,230.0) translate(-15.1,-6.0)">
      <g id="prefigure-ic4-sample-g-4">
        <svg xmlns:xlink="http://www.w3.org/1999/xlink" style="vertical-align: 0.000px" width="15.080px" height="12.056px" role="img" focusable="false" viewBox="0 -666 833 666" x="0.0" y="0.0">
          <defs>
            <path id="prefigure-ic4-sample-MJX-6-TEX-N-2D" d="M11 179V252H277V179H11Z"/>
            <path id="prefigure-ic4-sample-MJX-6-TEX-N-31" d="M213 578L200 573Q186 568 160 563T102 556H83V602H102Q149 604 189 617T245 641T273 663Q275 666 285 666Q294 666 302 660V361L303 61Q310 54 315 52T339 48T401 46H427V0H416Q395 3 257 3Q121 3 100 0H88V46H114Q136 46 152 46T177 47T193 50T201 52T207 57T213 61V578Z"/>
          </defs>
          <g stroke="currentColor" fill="currentColor" stroke-width="0" transform="scale(1,-1)">
            <g data-mml-node="math">
              <g data-mml-node="mtext" data-semantic-type="text" data-semantic-role="unknown" data-semantic-font="normal" data-semantic-annotation="clearspeak:unit" data-semantic-id="0" data-semantic-speech="hyphen 1">
                <use data-c="2D" xlink:href="#prefigure-ic4-sample-MJX-6-TEX-N-2D"/>
                <use data-c="31" xlink:href="#prefigure-ic4-sample-MJX-6-TEX-N-31" transform="translate(333,0)"/>
              </g>
            </g>
          </g>
        </svg>
      </g>
    </g>
    <g id="prefigure-ic4-sample-label-5" transform="translate(144.0,80.0) translate(-9.0,-6.0)">
      <g id="prefigure-ic4-sample-g-5">
        <svg xmlns:xlink="http://www.w3.org/1999/xlink" style="vertical-align: 0.000px" width="9.048px" height="12.056px" role="img" focusable="false" viewBox="0 -666 500 666" x="0.0" y="0.0">
          <defs>
            <path id="prefigure-ic4-sample-MJX-7-TEX-N-31" d="M213 578L200 573Q186 568 160 563T102 556H83V602H102Q149 604 189 617T245 641T273 663Q275 666 285 666Q294 666 302 660V361L303 61Q310 54 315 52T339 48T401 46H427V0H416Q395 3 257 3Q121 3 100 0H88V46H114Q136 46 152 46T177 47T193 50T201 52T207 57T213 61V578Z"/>
          </defs>
          <g stroke="currentColor" fill="currentColor" stroke-width="0" transform="scale(1,-1)">
            <g data-mml-node="math">
              <g data-mml-node="mtext" data-semantic-type="text" data-semantic-role="integer" data-semantic-font="normal" data-semantic-annotation="clearspeak:unit" data-semantic-id="0" data-semantic-speech="1">
                <use data-c="31" xlink:href="#prefigure-ic4-sample-MJX-7-TEX-N-31"/>
              </g>
            </g>
          </g>
        </svg>
      </g>
    </g>
  </g>
  <path id="prefigure-ic4-sample-path-0" d="M 155.0 230.0 L 155.0 230.0 L 157.4 230.0 L 159.7 229.9 L 162.1 229.7 L 164.4 229.4 L 166.7 229.1 L 169.1 228.7 L 171.4 228.2 L 173.7 227.6 L 175.9 227.0 L 178.2 226.3 L 180.4 225.6 L 182.6 224.7 L 184.8 223.8 L 186.9 222.9 L 189.0 221.8 L 191.1 220.7 L 193.2 219.6 L 195.2 218.3 L 197.2 217.0 L 199.1 215.7 L 201.0 214.3 L 202.8 212.8 L 204.6 211.3 L 206.3 209.7 L 208.0 208.0 L 209.7 206.3 L 211.3 204.6 L 212.8 202.8 L 214.3 201.0 L 215.7 199.1 L 217.0 197.2 L 218.3 195.2 L 219.6 193.2 L 220.7 191.1 L 221.8 189.0 L 222.9 186.9 L 223.8 184.8 L 224.7 182.6 L 225.6 180.4 L 226.3 178.2 L 227.0 175.9 L 227.6 173.7 L 228.2 171.4 L 228.7 169.1 L 229.1 166.7 L 229.4 164.4 L 229.7 162.1 L 229.9 159.7 L 230.0 157.4 L 230.0 155.0 L 230.0 152.6 L 229.9 150.3 L 229.7 147.9 L 229.4 145.6 L 229.1 143.3 L 228.7 140.9 L 228.2 138.6 L 227.6 136.3 L 227.0 134.1 L 226.3 131.8 L 225.6 129.6 L 224.7 127.4 L 223.8 125.2 L 222.9 123.1 L 221.8 121.0 L 220.7 118.9 L 219.6 116.8 L 218.3 114.8 L 217.0 112.8 L 215.7 110.9 L 214.3 109.0 L 212.8 107.2 L 211.3 105.4 L 209.7 103.7 L 208.0 102.0 L 206.3 100.3 L 204.6 98.7 L 202.8 97.2 L 201.0 95.7 L 199.1 94.3 L 197.2 93.0 L 195.2 91.7 L 193.2 90.4 L 191.1 89.3 L 189.0 88.2 L 186.9 87.1 L 184.8 86.2 L 182.6 85.3 L 180.4 84.4 L 178.2 83.7 L 175.9 83.0 L 173.7 82.4 L 171.4 81.8 L 169.1 81.3 L 166.7 80.9 L 164.4 80.6 L 162.1 80.3 L 159.7 80.1 L 157.4 80.0 L 155.0 80.0 L 155.0 230.0" stroke="blue" stroke-width="2" fill="#ccc" clip-path="url(#prefigure-ic4-sample-clipPath-1)"/>
  <g id="prefigure-ic4-sample-label-6" transform="translate(192.5,155.0) translate(-7.5,-6.2)">
    <g id="prefigure-ic4-sample-g-6">
      <svg xmlns:xlink="http://www.w3.org/1999/xlink" style="vertical-align: 0.000px" width="14.984px" height="12.360px" role="img" focusable="false" viewBox="0 -683 828 683" x="0.0" y="0.0">
        <defs>
          <path id="prefigure-ic4-sample-MJX-8-TEX-I-1D437" d="M287 628Q287 635 230 637Q207 637 200 638T193 647Q193 655 197 667T204 682Q206 683 403 683Q570 682 590 682T630 676Q702 659 752 597T803 431Q803 275 696 151T444 3L430 1L236 0H125H72Q48 0 41 2T33 11Q33 13 36 25Q40 41 44 43T67 46Q94 46 127 49Q141 52 146 61Q149 65 218 339T287 628ZM703 469Q703 507 692 537T666 584T629 613T590 629T555 636Q553 636 541 636T512 636T479 637H436Q392 637 386 627Q384 623 313 339T242 52Q242 48 253 48T330 47Q335 47 349 47T373 46Q499 46 581 128Q617 164 640 212T683 339T703 469Z"/>
        </defs>
        <g stroke="currentColor" fill="currentColor" stroke-width="0" transform="scale(1,-1)">
          <g data-mml-node="math">
            <g data-mml-node="mi" data-semantic-type="identifier" data-semantic-role="latinletter" data-semantic-font="italic" data-semantic-annotation="clearspeak:simple" data-semantic-id="0" data-semantic-speech="upper D">
              <use data-c="1D437" xlink:href="#prefigure-ic4-sample-MJX-8-TEX-I-1D437"/>
            </g>
          </g>
        </g>
      </svg>
    </g>
  </g>
</svg>
